# xmcd CD database file
#
# Track frame offsets:
#	150
#	29752
#	52485
#	74250
#	76871
#	101320
#	107733
#	129488
#	137213
#	164400
#	185258
#	206826
#	212237
#	234671
#
# Disc length: 3162 seconds
#
# Revision: 0
# Processed by: cddbd v1.5.2PL0 Copyright (c) Steve Scherf et al.
# Submitted via: CDex 1.70beta2
#
DISCID=d30c580e
DTITLE=Chris Minh Donkey - The Nomad Diaries
DYEAR=2006
DGENRE=Jazz
TTITLE0=September (for Tanja)
TTITLE1=Last Call
TTITLE2=If I Run
TTITLE3=blog - tracking
TTITLE4=Satellite
TTITLE5=blog - frida and milo
TTITLE6=The Scanner
TTITLE7=blog - rise and shine
TTITLE8=Life in The Mirror
TTITLE9=Where R U?
TTITLE10=I Skovens Dybe Stille Ro
TTITLE11=blog - noon
TTITLE12=Teen Town
TTITLE13=blog - display
EXTD=YEAR: 2006
EXTT0=
EXTT1=
EXTT2=
EXTT3=
EXTT4=
EXTT5=
EXTT6=
EXTT7=
EXTT8=
EXTT9=
EXTT10=
EXTT11=
EXTT12=
EXTT13=
PLAYORDER=
